<svg xmlns="http://www.w3.org/2000/svg" version="1.1" xmlns:xlink="http://www.w3.org/1999/xlink" viewBox="0 0 200 200" width="200" height="200"><metadata><rdf:RDF xmlns:rdf="http://www.w3.org/1999/02/22-rdf-syntax-ns#" xmlns:dc="http://purl.org/dc/elements/1.1/"><rdf:Description><dc:creator>RealFaviconGenerator</dc:creator><dc:source>https://realfavicongenerator.net</dc:source></rdf:Description></rdf:RDF></metadata><rect width="200" height="200" fill="url('#gradient')"></rect><defs><linearGradient id="gradient" gradientTransform="rotate(360 0.5 0.5)"><stop offset="0%" stop-color="#0ab5fa"></stop><stop offset="100%" stop-color="#00d9ff"></stop></linearGradient></defs><g><g fill="#0a4e91" transform="matrix(1.9943735122267907,0,0,1.9943735122267907,8.656910811312088,110.71087844855236)" stroke="#0c325a" stroke-width="0"><path d="M9.17-4.81L12.58-4.81Q12.51-3.33 11.78-2.19Q11.04-1.05 9.72-0.43Q8.40 0.20 6.70 0.20L6.70 0.20Q3.90 0.20 2.29-1.63Q0.67-3.46 0.67-6.79L0.67-6.79L0.67-7.49Q0.67-9.58 1.40-11.15Q2.13-12.71 3.50-13.57Q4.86-14.42 6.66-14.42L6.66-14.42Q9.25-14.42 10.82-13.06Q12.39-11.70 12.61-9.31L12.61-9.31L9.19-9.31Q9.15-10.61 8.54-11.17Q7.92-11.74 6.66-11.74L6.66-11.74Q5.38-11.74 4.79-10.78Q4.19-9.82 4.16-7.72L4.16-7.72L4.16-6.72Q4.16-4.44 4.73-3.47Q5.30-2.49 6.70-2.49L6.70-2.49Q7.88-2.49 8.51-3.05Q9.13-3.60 9.17-4.81L9.17-4.81ZM16.60-10.57L18.27-4.61L20.03-10.57L23.55-10.57L19.25 1.77L19.06 2.22Q18.14 4.27 15.82 4.27L15.82 4.27Q15.18 4.27 14.46 4.07L14.46 4.07L14.46 1.72L14.89 1.72Q15.59 1.72 15.95 1.52Q16.32 1.32 16.49 0.80L16.49 0.80L16.76 0.10L13.09-10.57L16.60-10.57ZM34.22-5.36L34.22-5.20Q34.22-2.60 33.14-1.20Q32.07 0.20 30.12 0.20L30.12 0.20Q28.51 0.20 27.52-1.08L27.52-1.08L27.38 0L24.43 0L24.43-15L27.72-15L27.72-9.72Q28.64-10.76 30.10-10.76L30.10-10.76Q32.07-10.76 33.14-9.35Q34.22-7.93 34.22-5.36L34.22-5.36ZM30.92-5.40L30.92-5.40Q30.92-6.92 30.51-7.57Q30.11-8.22 29.27-8.22L29.27-8.22Q28.15-8.22 27.72-7.37L27.72-7.37L27.72-3.17Q28.14-2.33 29.29-2.33L29.29-2.33Q30.45-2.33 30.76-3.47L30.76-3.47Q30.92-4.02 30.92-5.40ZM40.78 0.20L40.78 0.20Q38.35 0.20 36.85-1.25Q35.34-2.71 35.34-5.03L35.34-5.03L35.34-5.30Q35.34-6.92 35.94-8.16Q36.54-9.40 37.70-10.08Q38.85-10.76 40.43-10.76L40.43-10.76Q42.66-10.76 43.95-9.38Q45.23-8.00 45.23-5.53L45.23-5.53L45.23-4.25L38.69-4.25Q38.87-3.36 39.46-2.85Q40.06-2.34 41.01-2.34L41.01-2.34Q42.57-2.34 43.45-3.44L43.45-3.44L44.95-1.66Q44.34-0.81 43.21-0.31Q42.08 0.20 40.78 0.20ZM40.41-8.22L40.41-8.22Q38.96-8.22 38.69-6.31L38.69-6.31L42.01-6.31L42.01-6.56Q42.03-7.35 41.61-7.79Q41.19-8.22 40.41-8.22ZM54.50 0L51.99-5.02L50.14-5.02L50.14 0L46.71 0L46.71-14.22L52.30-14.22Q54.83-14.22 56.26-13.10Q57.69-11.97 57.69-9.92L57.69-9.92Q57.69-8.44 57.08-7.46Q56.48-6.48 55.21-5.88L55.21-5.88L58.17-0.15L58.17 0L54.50 0ZM50.14-11.57L50.14-7.67L52.30-7.67Q53.28-7.67 53.77-8.18Q54.27-8.69 54.27-9.61Q54.27-10.53 53.77-11.05Q53.27-11.57 52.30-11.57L52.30-11.57L50.14-11.57ZM68.85 0L65.56 0Q65.38-0.32 65.24-0.95L65.24-0.95Q64.34 0.20 62.71 0.20L62.71 0.20Q61.21 0.20 60.17-0.71Q59.12-1.61 59.12-2.98L59.12-2.98Q59.12-4.70 60.39-5.58Q61.66-6.46 64.08-6.46L64.08-6.46L65.10-6.46L65.10-7.01Q65.10-8.47 63.84-8.47L63.84-8.47Q62.67-8.47 62.67-7.31L62.67-7.31L59.38-7.31Q59.38-8.85 60.68-9.80Q61.98-10.76 64.00-10.76Q66.03-10.76 67.20-9.78Q68.37-8.79 68.40-7.07L68.40-7.07L68.40-2.39Q68.42-0.94 68.85-0.17L68.85-0.17L68.85 0ZM63.50-2.15L63.50-2.15Q64.11-2.15 64.52-2.41Q64.92-2.68 65.10-3.01L65.10-3.01L65.10-4.70L64.14-4.70Q62.42-4.70 62.42-3.15L62.42-3.15Q62.42-2.71 62.72-2.43Q63.03-2.15 63.50-2.15ZM74.69-2.34L74.69-2.34Q75.38-2.34 75.76-2.72Q76.14-3.10 76.13-3.77L76.13-3.77L79.22-3.77Q79.22-2.03 77.97-0.92Q76.73 0.20 74.77 0.20L74.77 0.20Q72.46 0.20 71.13-1.25Q69.80-2.70 69.80-5.25L69.80-5.25L69.80-5.39Q69.80-6.99 70.40-8.22Q70.99-9.44 72.10-10.10Q73.21-10.76 74.74-10.76L74.74-10.76Q76.80-10.76 78.01-9.62Q79.22-8.48 79.22-6.52L79.22-6.52L76.13-6.52Q76.13-7.34 75.73-7.78Q75.33-8.22 74.66-8.22L74.66-8.22Q73.38-8.22 73.16-6.59L73.16-6.59Q73.10-6.07 73.10-5.17L73.10-5.17Q73.10-3.57 73.48-2.96Q73.86-2.34 74.69-2.34ZM87.16 0L84.85-3.94L83.93-3.01L83.93 0L80.63 0L80.63-15.01L83.93-15.01L83.93-7.04L84.26-7.48L86.74-10.57L90.68-10.57L86.98-6.22L90.93 0L87.16 0Z"></path></g></g></svg>